<svg width="0" height="0" class="hidden">
  <symbol xmlns="http://www.w3.org/2000/svg" viewBox="0 0 48 48" id="styledcomp">
    <path fill="#ffcc80" d="M0,44.957v-12.83l15.975-12.72c1.723-1.372,4.201-1.232,5.758,0.326l0,0C23.502,21.502,22.879,25.349,21,27L0,44.957z"></path>
    <path fill="#f2a25a" d="M22.765,22.313c-0.061-0.998-0.382-1.93-1.032-2.579c-1.557-1.557-4.035-1.697-5.758-0.326l-2.722,2.168c-0.739,1.181-0.42,2.615,0.465,3.763c0.841,1.09,3.213,1.117,5.073,0.67L0,44v0.957L21,27c1.186-1.042,1.854-2.953,1.754-4.669L22.765,22.313z"></path>
    <path fill="#f50057" d="M25.555,14.877c-0.685-0.933-1.998-1.135-2.931-0.449l-8.6,6.315c-0.131,0.098-0.27,0.217-0.387,0.339c-1.153,1.198-1.117,3.104,0.08,4.257s4.104,1.117,5.257-0.08L26,18C26.696,17.279,26.169,15.712,25.555,14.877z"></path>
    <path fill="#ff80ab" d="M25.555,14.877c-0.685-0.933-1.998-1.135-2.931-0.449l-8.6,6.315c-0.131,0.098-0.27,0.217-0.387,0.339c-1.153,1.198-1.117,3.104,0.08,4.257c0.011,0.011,0.025,0.018,0.036,0.028C13.754,25.367,25.61,14.951,25.555,14.877z"></path>
    <path fill="#ffcc80" d="M0,48v-3.043L24,24c2.082-1.856,5.542-2.458,7.514-0.486l0,0c2.156,2.156,2.035,5.686-0.264,7.69L11.979,48H0z"></path>
    <path fill="#ffcc80" d="M11.979,48l16.438-14.779c2.009-1.806,5.08-1.725,6.99,0.186l0,0c1.984,1.984,1.984,5.202,0,7.186L28,48H11.979z"></path>
    <path fill="#f2a25a" d="M33.056,26.966c-0.001-0.014-0.032-1.992-1.518-3.478l-0.024,0.026C29.542,21.542,26.082,22.144,24,24l-1.63,1.423l-0.117,0.152c-0.739,1.181-0.579,2.757,0.465,3.763c0.999,0.962,4.696,1.467,7.637-0.128L11,48h0.979l19.272-16.796C32.519,30.098,33.128,28.534,33.056,26.966z"></path>
    <path fill="#f2a25a" d="M36.804,36.047L36.804,36.047c-0.176-0.973-0.643-1.886-1.397-2.64v0c-1.91-1.91-4.981-1.992-6.99-0.186l-0.909,0.818l-0.254,0.537c-0.739,1.181-0.579,2.757,0.465,3.763c0.8,0.77,3.329,1.692,5.815,1.327L26,48h2l7.407-7.407C36.643,39.357,37.107,37.643,36.804,36.047z"></path>
    <path fill="#f50057" d="M36,22c0.709-0.732,0.185-3.33-0.452-4.165c-0.701-0.92-2.016-1.098-2.936-0.397l-9.605,7.319c-0.114,0.088-0.236,0.195-0.339,0.302c-1.155,1.194-1.123,3.099,0.071,4.254S27.845,30.194,29,29L36,22z"></path>
    <path fill="#ff80ab" d="M32.612,17.438l-9.605,7.319c-0.114,0.088-0.236,0.195-0.339,0.302c-1.004,1.038-1.109,2.612-0.335,3.765l12.859-11.347C34.459,16.887,33.395,16.842,32.612,17.438z"></path>
    <path fill="#f50057" d="M38.477,27.794c-0.741-0.891-2.064-1.013-2.955-0.272l-7.644,6.356c-0.135,0.113-0.274,0.25-0.39,0.39c-1.064,1.279-0.889,3.179,0.39,4.243s4.179,0.889,5.243-0.39L39,31C39.635,30.238,39.134,28.585,38.477,27.794z"></path>
    <path fill="#ff80ab" d="M35.523,27.523l-7.644,6.356c-0.135,0.113-0.274,0.25-0.39,0.39c-0.86,1.034-0.897,2.467-0.209,3.543l10.999-10.213C37.517,26.898,36.34,26.843,35.523,27.523z"></path>
    <path fill="#c51162" d="M47,3h-4l-4,19c0,0-3,1-3,6v2c0,0,6,0,5-8L47,3z"></path>
    <path fill="#f50057" d="M36,30c0,0,1-4,4-8l5-17l-2-2l-4,19C39,22,35,23,36,30z"></path>
    <path fill="#37474f" d="M40,0l-0.846,5.074c-0.106,0.635,0.098,1.285,0.548,1.745c1.863,1.904,4.558,2.804,7.229,2.359L48,9V0H40z"></path>
    <path fill="#546e7a" d="M44.561,0H40l-0.846,5.074c-0.106,0.635,0.098,1.285,0.548,1.745c1.063,1.086,2.401,1.832,3.846,2.201L44.561,0z"></path>
  </symbol>
  <symbol xmlns="http://www.w3.org/2000/svg" viewBox="0 0 48 48" id="tailwind">
    <linearGradient id="a" x1="-2.778%" y1="32%" y2="67.556%"><stop offset="0" stop-color="#2298bd"/><stop offset="1" stop-color="#0ed7b5"/></linearGradient><path d="M128 0C93.867 0 72.533 17.067 64 51.2 76.8 34.133 91.733 27.733 108.8 32c9.737 2.434 16.697 9.499 24.401 17.318C145.751 62.057 160.275 76.8 192 76.8c34.133 0 55.467-17.067 64-51.2-12.8 17.067-27.733 23.467-44.8 19.2-9.737-2.434-16.697-9.499-24.401-17.318C174.249 14.743 159.725 0 128 0zM64 76.8C29.867 76.8 8.533 93.867 0 128c12.8-17.067 27.733-23.467 44.8-19.2 9.737 2.434 16.697 9.499 24.401 17.318C81.751 138.857 96.275 153.6 128 153.6c34.133 0 55.467-17.067 64-51.2-12.8 17.067-27.733 23.467-44.8 19.2-9.737-2.434-16.697-9.499-24.401-17.318C110.249 91.543 95.725 76.8 64 76.8z" fill="url(#a)"/></symbol>
  <symbol xmlns="http://www.w3.org/2000/svg" viewBox="0 0 48 48" id="twitter">
    <path fill="#03A9F4" d="M42,12.429c-1.323,0.586-2.746,0.977-4.247,1.162c1.526-0.906,2.7-2.351,3.251-4.058c-1.428,0.837-3.01,1.452-4.693,1.776C34.967,9.884,33.05,9,30.926,9c-4.08,0-7.387,3.278-7.387,7.32c0,0.572,0.067,1.129,0.193,1.67c-6.138-0.308-11.582-3.226-15.224-7.654c-0.64,1.082-1,2.349-1,3.686c0,2.541,1.301,4.778,3.285,6.096c-1.211-0.037-2.351-0.374-3.349-0.914c0,0.022,0,0.055,0,0.086c0,3.551,2.547,6.508,5.923,7.181c-0.617,0.169-1.269,0.263-1.941,0.263c-0.477,0-0.942-0.054-1.392-0.135c0.94,2.902,3.667,5.023,6.898,5.086c-2.528,1.96-5.712,3.134-9.174,3.134c-0.598,0-1.183-0.034-1.761-0.104C9.268,36.786,13.152,38,17.321,38c13.585,0,21.017-11.156,21.017-20.834c0-0.317-0.01-0.633-0.025-0.945C39.763,15.197,41.013,13.905,42,12.429"></path>
  </symbol>
  <symbol xmlns="http://www.w3.org/2000/svg" viewBox="0 0 48 48" id="typescript">
    <rect width="36" height="36" x="6" y="6" fill="#1976d2"></rect>
    <polygon fill="#fff" points="27.49,22 14.227,22 14.227,25.264 18.984,25.264 18.984,40 22.753,40 22.753,25.264 27.49,25.264"></polygon>
    <path fill="#fff" d="M39.194,26.084c0,0-1.787-1.192-3.807-1.192s-2.747,0.96-2.747,1.986 c0,2.648,7.381,2.383,7.381,7.712c0,8.209-11.254,4.568-11.254,4.568V35.22c0,0,2.152,1.622,4.733,1.622s2.483-1.688,2.483-1.92 c0-2.449-7.315-2.449-7.315-7.878c0-7.381,10.658-4.469,10.658-4.469L39.194,26.084z"></path>
  </symbol>
  <symbol xmlns="http://www.w3.org/2000/svg" viewBox="0 0 30 30" id="verified">
    <path d="M15 3C13.307 3 11.817109 3.8458125 10.912109 5.1328125C9.3621094 4.8628125 7.712625 5.318625 6.515625 6.515625C5.318625 7.712625 4.8628125 9.3631094 5.1328125 10.912109C3.8458125 11.817109 3 13.307 3 15C3 16.693 3.8458125 18.182891 5.1328125 19.087891C4.8628125 20.637891 5.318625 22.287375 6.515625 23.484375C7.712625 24.681375 9.3631094 25.137187 10.912109 24.867188C11.817109 26.154187 13.307 27 15 27C16.693 27 18.182891 26.154188 19.087891 24.867188C20.637891 25.137187 22.287375 24.681375 23.484375 23.484375C24.681375 22.287375 25.137187 20.636891 24.867188 19.087891C26.154187 18.182891 27 16.693 27 15C27 13.307 26.154188 11.817109 24.867188 10.912109C25.137187 9.3621094 24.681375 7.712625 23.484375 6.515625C22.287375 5.318625 20.636891 4.8628125 19.087891 5.1328125C18.182891 3.8458125 16.693 3 15 3 z M 21 10C21.25575 10 21.511531 10.097469 21.707031 10.292969C22.098031 10.683969 22.098031 11.316031 21.707031 11.707031L14.146484 19.267578C13.958484 19.455578 13.704453 19.560547 13.439453 19.560547C13.174453 19.560547 12.919422 19.455578 12.732422 19.267578L9.2792969 15.814453C8.8882969 15.423453 8.8882969 14.791391 9.2792969 14.400391C9.6702969 14.009391 10.302359 14.009391 10.693359 14.400391L13.439453 17.146484L20.292969 10.292969C20.488469 10.097469 20.74425 10 21 10 z" fill="#00000C"></path>
  </symbol>
  <symbol xmlns="http://www.w3.org/2000/svg" viewBox="0 0 48 48" id="webpack">
    <polygon fill="#eceff1" points="24,4 7,14 7,34 24,44 41,34 41,14"></polygon>
    <polygon fill="#0277bd" points="23.5,24.5 23.5,33.5 15,29 15,19.5"></polygon>
    <polygon fill="#0277bd" points="24.5,24.5 24.5,33.5 33,29 33,19.5"></polygon>
    <polygon fill="#0277bd" points="24,23.5 15.5,18.5 24,14 32.5,18.5"></polygon>
    <g>
      <polygon fill="#81d4fa" points="23.5,7 23.5,13 14.5,18 9.5,15"></polygon>
      <polygon fill="#81d4fa" points="23.5,41 23.5,35 14.5,30 9.5,33"></polygon>
      <polygon fill="#81d4fa" points="14,19 9,16 9,32 14,29"></polygon>
      <polygon fill="#81d4fa" points="24.5,7 24.5,13 33.5,18 38.5,15"></polygon>
      <polygon fill="#81d4fa" points="24.5,41 24.5,35 33.5,30 38.5,33"></polygon>
      <polygon fill="#81d4fa" points="34,19 39,16 39,32 34,29"></polygon>
    </g>
  </symbol>
  <symbol xmlns="http://www.w3.org/2000/svg" viewBox="0 0 48 48" id="wordpress">
    <path fill="#fff" d="M24 4.050000000000001A19.95 19.95 0 1 0 24 43.95A19.95 19.95 0 1 0 24 4.050000000000001Z"></path>
    <path fill="#01579b" d="M8.001,24c0,6.336,3.68,11.806,9.018,14.4L9.385,17.488C8.498,19.479,8.001,21.676,8.001,24z M34.804,23.194c0-1.977-1.063-3.35-1.67-4.412c-0.813-1.329-1.576-2.437-1.576-3.752c0-1.465,1.471-2.84,3.041-2.84 c0.071,0,0.135,0.006,0.206,0.008C31.961,9.584,28.168,8,24.001,8c-5.389,0-10.153,2.666-13.052,6.749 c0.228,0.074,0.307,0.039,0.611,0.039c1.669,0,4.264-0.2,4.264-0.2c0.86-0.057,0.965,1.212,0.099,1.316c0,0-0.864,0.105-1.828,0.152 l5.931,17.778l3.5-10.501l-2.603-7.248c-0.861-0.046-1.679-0.152-1.679-0.152c-0.862-0.056-0.762-1.375,0.098-1.316 c0,0,2.648,0.2,4.217,0.2c1.675,0,4.264-0.2,4.264-0.2c0.861-0.057,0.965,1.212,0.104,1.316c0,0-0.87,0.105-1.832,0.152l5.891,17.61 l1.599-5.326C34.399,26.289,34.804,24.569,34.804,23.194z M24.281,25.396l-4.8,13.952c1.436,0.426,2.95,0.652,4.52,0.652 c1.861,0,3.649-0.324,5.316-0.907c-0.04-0.071-0.085-0.143-0.118-0.22L24.281,25.396z M38.043,16.318 c0.071,0.51,0.108,1.059,0.108,1.645c0,1.628-0.306,3.451-1.219,5.737l-4.885,14.135C36.805,35.063,40,29.902,40,24 C40,21.219,39.289,18.604,38.043,16.318z"></path>
    <path fill="#01579b" d="M4,24c0,11.024,8.97,20,19.999,20C35.03,44,44,35.024,44,24S35.03,4,24,4S4,12.976,4,24z M5.995,24 c0-9.924,8.074-17.999,18.004-17.999S42.005,14.076,42.005,24S33.929,42.001,24,42.001C14.072,42.001,5.995,33.924,5.995,24z"></path>
  </symbol>
  <symbol xmlns="http://www.w3.org/2000/svg" viewBox="0 0 512 407.864" id="bootstrap-5-1">
    <path d="m106.344 0c-29.214 0-50.831 25.57-49.863 53.3.929 26.641-.278 61.145-8.964 89.283-8.717 28.217-23.449 46.098-47.517 48.393v25.912c24.068 2.3 38.8 20.172 47.516 48.393 8.687 28.138 9.893 62.642 8.964 89.283-.968 27.726 20.649 53.3 49.868 53.3h299.347c29.214 0 50.827-25.57 49.859-53.3-.929-26.641.278-61.145 8.964-89.283 8.717-28.221 23.413-46.1 47.482-48.393v-25.912c-24.068-2.3-38.764-20.172-47.482-48.393-8.687-28.134-9.893-62.642-8.964-89.283.968-27.726-20.645-53.3-49.859-53.3h-299.355zm240.775 251.067c0 38.183-28.481 61.34-75.746 61.34h-80.458a8.678 8.678 0 0 1 -8.678-8.678v-199.593a8.678 8.678 0 0 1 8.678-8.678h80c39.411 0 65.276 21.348 65.276 54.124 0 23.005-17.4 43.6-39.567 47.208v1.2c30.176 3.31 50.495 24.21 50.495 53.077zm-84.519-128.1h-45.876v64.8h38.639c29.87 0 46.34-12.028 46.34-33.527-.003-20.148-14.163-31.273-39.103-31.273zm-45.876 90.511v71.411h47.564c31.1 0 47.573-12.479 47.573-35.931s-16.935-35.484-49.573-35.484h-45.564z" fill="#7952b3" fill-rule="evenodd"></path>
  </symbol>
  <symbol xmlns="http://www.w3.org/2000/svg" viewBox="0 0 48 48" id="css">
    <path fill="#0277BD" d="M41,5H7l3,34l14,4l14-4L41,5L41,5z"></path>
    <path fill="#039BE5" d="M24 8L24 39.9 35.2 36.7 37.7 8z"></path>
    <path fill="#FFF" d="M33.1 13L24 13 24 17 28.9 17 28.6 21 24 21 24 25 28.4 25 28.1 29.5 24 30.9 24 35.1 31.9 32.5 32.6 21 32.6 21z"></path>
    <path fill="#EEE" d="M24,13v4h-8.9l-0.3-4H24z M19.4,21l0.2,4H24v-4H19.4z M19.8,27h-4l0.3,5.5l7.9,2.6v-4.2l-4.1-1.4L19.8,27z"></path>
  </symbol>
  <symbol xmlns="http://www.w3.org/2000/svg" baseProfile="basic" viewBox="0 0 48 48" id="express">
    <path fill="#212121" d="M23.697,37.56h1.18c0.84,0,1.631-0.392,2.139-1.061l7.485-9.847l7.485,9.847c0.508,0.668,1.299,1.061,2.139,1.061h1.18L35.756,25l9.121-12h-1.18c-0.84,0-1.631,0.392-2.139,1.061L34.5,23.347l-7.059-9.287C26.933,13.392,26.142,13,25.302,13h-1.18l9.121,12L23.697,37.56z"></path>
    <path fill="#212121" d="M24,26v-3c0-6.675-5.945-11.961-12.829-10.852C5.812,13.011,2,17.857,2,23.284L2,24v2v0.142c0,6.553,4.777,11.786,10.868,11.858c5.092,0.06,9.389-3.344,10.707-7.999h-1.028c-0.62,0-1.182,0.355-1.451,0.913c-1.739,3.595-5.789,5.862-10.228,4.842C6.776,34.815,4,30.981,4,26.783V26H24z M4,23.71c0-4.708,2.804-8.557,6.924-9.478C16.798,12.92,22,17.352,22,23v1H4V23.71z"></path>
  </symbol>
  <symbol xmlns="http://www.w3.org/2000/svg" viewBox="0 0 48 48" id="git">
    <path fill="#F4511E" d="M42.2,22.1L25.9,5.8C25.4,5.3,24.7,5,24,5c0,0,0,0,0,0c-0.7,0-1.4,0.3-1.9,0.8l-3.5,3.5l4.1,4.1c0.4-0.2,0.8-0.3,1.3-0.3c1.7,0,3,1.3,3,3c0,0.5-0.1,0.9-0.3,1.3l4,4c0.4-0.2,0.8-0.3,1.3-0.3c1.7,0,3,1.3,3,3s-1.3,3-3,3c-1.7,0-3-1.3-3-3c0-0.5,0.1-0.9,0.3-1.3l-4-4c-0.1,0-0.2,0.1-0.3,0.1v10.4c1.2,0.4,2,1.5,2,2.8c0,1.7-1.3,3-3,3s-3-1.3-3-3c0-1.3,0.8-2.4,2-2.8V18.8c-1.2-0.4-2-1.5-2-2.8c0-0.5,0.1-0.9,0.3-1.3l-4.1-4.1L5.8,22.1C5.3,22.6,5,23.3,5,24c0,0.7,0.3,1.4,0.8,1.9l16.3,16.3c0,0,0,0,0,0c0.5,0.5,1.2,0.8,1.9,0.8s1.4-0.3,1.9-0.8l16.3-16.3c0.5-0.5,0.8-1.2,0.8-1.9C43,23.3,42.7,22.6,42.2,22.1z"></path>
  </symbol>
  <symbol xmlns="http://www.w3.org/2000/svg" viewBox="0 0 30 30" id="github">
    <path d="M15,3C8.373,3,3,8.373,3,15c0,5.623,3.872,10.328,9.092,11.63C12.036,26.468,12,26.28,12,26.047v-2.051 c-0.487,0-1.303,0-1.508,0c-0.821,0-1.551-0.353-1.905-1.009c-0.393-0.729-0.461-1.844-1.435-2.526 c-0.289-0.227-0.069-0.486,0.264-0.451c0.615,0.174,1.125,0.596,1.605,1.222c0.478,0.627,0.703,0.769,1.596,0.769 c0.433,0,1.081-0.025,1.691-0.121c0.328-0.833,0.895-1.6,1.588-1.962c-3.996-0.411-5.903-2.399-5.903-5.098 c0-1.162,0.495-2.286,1.336-3.233C9.053,10.647,8.706,8.73,9.435,8c1.798,0,2.885,1.166,3.146,1.481C13.477,9.174,14.461,9,15.495,9 c1.036,0,2.024,0.174,2.922,0.483C18.675,9.17,19.763,8,21.565,8c0.732,0.731,0.381,2.656,0.102,3.594 c0.836,0.945,1.328,2.066,1.328,3.226c0,2.697-1.904,4.684-5.894,5.097C18.199,20.49,19,22.1,19,23.313v2.734 c0,0.104-0.023,0.179-0.035,0.268C23.641,24.676,27,20.236,27,15C27,8.373,21.627,3,15,3z" fill="#00000C"></path>
  </symbol>
  <symbol xmlns="http://www.w3.org/2000/svg" viewBox="0 0 48 48" id="gmail">
    <path fill="#4caf50" d="M45,16.2l-5,2.75l-5,4.75L35,40h7c1.657,0,3-1.343,3-3V16.2z"></path>
    <path fill="#1e88e5" d="M3,16.2l3.614,1.71L13,23.7V40H6c-1.657,0-3-1.343-3-3V16.2z"></path>
    <polygon fill="#e53935" points="35,11.2 24,19.45 13,11.2 12,17 13,23.7 24,31.95 35,23.7 36,17"></polygon>
    <path fill="#c62828" d="M3,12.298V16.2l10,7.5V11.2L9.876,8.859C9.132,8.301,8.228,8,7.298,8h0C4.924,8,3,9.924,3,12.298z"></path>
    <path fill="#fbc02d" d="M45,12.298V16.2l-10,7.5V11.2l3.124-2.341C38.868,8.301,39.772,8,40.702,8h0 C43.076,8,45,9.924,45,12.298z"></path>
  </symbol>
  <symbol xmlns="http://www.w3.org/2000/svg" viewBox="0 0 48 48" id="heroku">
    <path fill="#7e57c2" d="M7,41L7,7c0-2.209,1.791-4,4-4h26c2.209,0,4,1.785,4,3.994c0,8.018,0,25.991,0,34.01C41,43.214,39.209,45,37,45H11C8.791,45,7,43.209,7,41z"></path>
    <path fill="#fff" d="M28.292,39.221v-16.68c0,0,1.085-3.991-13.364,1.633c-0.026,0.071-0.026-15.424-0.026-15.424l4.721-0.029v9.928c0,0,13.218-5.206,13.218,3.948v16.623L28.292,39.221L28.292,39.221L28.292,39.221z M30.982,14.73h-5.007c1.802-2.204,3.434-5.98,3.434-5.98h5.178C34.586,8.751,33.7,11.211,30.982,14.73L30.982,14.73L30.982,14.73z M14.987,39.192v-9.498l4.75,4.75L14.987,39.192L14.987,39.192z"></path>
  </symbol>
  <symbol xmlns="http://www.w3.org/2000/svg" viewBox="0 0 48 48" id="html">
    <polygon fill="#e7a42b" points="8,5 42,5 38,39 25,43 11,39"></polygon>
    <polygon fill="#f2bf22" points="38.63,8 35.25,36.71 25,39.86 25,8"></polygon>
    <polygon fill="#faf9f8" points="25,21 26,23 25,25 15.79,25 16.64,12 25,12 26,14 25,16 21.03,16 20.7,21"></polygon>
    <polygon fill="#ebebeb" points="24.9,32.57 25,32.54 26,35 25,36.72 24.94,36.74 16.61,34.36 16.05,28 20.07,28 20.35,31.27"></polygon>
    <polygon fill="#fff" points="34.07,21 32.5,34.42 25,36.72 25,32.54 28.83,31.36 29.57,25 25,25 25,21"></polygon>
    <polygon fill="#fff" points="34.92,18 30.93,18 30.67,16 25,16 25,12 34.13,12 34.3,13.26"></polygon>
  </symbol>
  <symbol xmlns="http://www.w3.org/2000/svg" viewBox="0 0 48 48" id="javascript">
    <path fill="#ffd600" d="M6,42V6h36v36H6z"></path>
    <path fill="#000001" d="M29.538 32.947c.692 1.124 1.444 2.201 3.037 2.201 1.338 0 2.04-.665 2.04-1.585 0-1.101-.726-1.492-2.198-2.133l-.807-.344c-2.329-.988-3.878-2.226-3.878-4.841 0-2.41 1.845-4.244 4.728-4.244 2.053 0 3.528.711 4.592 2.573l-2.514 1.607c-.553-.988-1.151-1.377-2.078-1.377-.946 0-1.545.597-1.545 1.377 0 .964.6 1.354 1.985 1.951l.807.344C36.452 29.645 38 30.839 38 33.523 38 36.415 35.716 38 32.65 38c-2.999 0-4.702-1.505-5.65-3.368L29.538 32.947zM17.952 33.029c.506.906 1.275 1.603 2.381 1.603 1.058 0 1.667-.418 1.667-2.043V22h3.333v11.101c0 3.367-1.953 4.899-4.805 4.899-2.577 0-4.437-1.746-5.195-3.368L17.952 33.029z"></path>
  </symbol>
  <symbol xmlns="http://www.w3.org/2000/svg" viewBox="0 0 50 50" id="jquery">
    <path d="M29.867188 3.007813C29.761719 3.023438 29.65625 3.054688 29.554688 3.101563C28.695313 3.527344 27.71875 4.792969 27.53125 5.042969C27.519531 5.058594 27.507813 5.074219 27.5 5.089844C26.535156 6.535156 26.019531 8.226563 26 9.988281C25.988281 11.308594 26.246094 12.617188 26.769531 13.878906C27.988281 16.804688 30.519531 19.226563 33.53125 20.359375C33.632813 20.394531 33.730469 20.429688 33.90625 20.492188C33.921875 20.5 34.070313 20.546875 34.09375 20.550781L34.203125 20.589844C34.359375 20.640625 34.519531 20.691406 34.675781 20.722656C35.46875 20.882813 36.242188 20.972656 36.96875 20.996094C37.09375 20.996094 37.21875 21 37.34375 21C42.824219 21 44.949219 17.132813 45.65625 15.84375C45.726563 15.71875 45.777344 15.617188 45.824219 15.554688C45.824219 15.550781 45.824219 15.550781 45.828125 15.546875C46.136719 15.089844 46.019531 14.46875 45.5625 14.15625C45.109375 13.847656 44.488281 13.964844 44.175781 14.421875C44.175781 14.421875 44.171875 14.421875 44.171875 14.421875C42.710938 16.574219 40.210938 17.226563 36.746094 16.367188C36.488281 16.304688 36.207031 16.207031 35.957031 16.113281C35.628906 15.996094 35.300781 15.859375 34.996094 15.710938C34.390625 15.410156 33.820313 15.050781 33.304688 14.652344C30.257813 12.289063 29.066406 7.371094 30.847656 4.53125C31.085938 4.152344 31.042969 3.660156 30.742188 3.328125C30.515625 3.078125 30.1875 2.964844 29.867188 3.007813 Z M 21.007813 5C20.78125 4.996094 20.550781 5.070313 20.363281 5.226563C18.851563 6.457031 17.304688 8.472656 17.238281 8.554688C17.230469 8.570313 17.222656 8.582031 17.210938 8.597656C14.476563 12.578125 14.269531 18.242188 16.6875 23.027344C17.066406 23.785156 17.496094 24.507813 17.953125 25.171875L18.089844 25.367188C18.476563 25.933594 18.910156 26.574219 19.464844 27.074219C19.65625 27.292969 19.863281 27.503906 20.066406 27.707031L20.164063 27.808594L20.246094 27.890625C20.453125 28.089844 20.664063 28.292969 20.882813 28.488281C20.882813 28.488281 20.886719 28.488281 20.886719 28.488281C20.902344 28.511719 20.925781 28.527344 20.945313 28.546875C21.191406 28.765625 21.441406 28.972656 21.773438 29.234375L21.863281 29.300781C22.121094 29.507813 22.382813 29.703125 22.652344 29.894531C22.679688 29.914063 22.707031 29.933594 22.734375 29.953125C22.828125 30.015625 22.921875 30.074219 23.015625 30.140625L23.109375 30.203125L23.21875 30.273438C23.417969 30.40625 23.613281 30.527344 23.890625 30.6875C24.070313 30.796875 24.261719 30.90625 24.386719 30.96875C24.441406 31 24.5 31.03125 24.636719 31.105469L24.941406 31.265625C24.957031 31.273438 25.027344 31.304688 25.042969 31.3125C25.242188 31.414063 25.449219 31.511719 25.65625 31.605469L25.972656 31.746094C26.179688 31.835938 26.390625 31.921875 26.648438 32.019531L26.765625 32.0625C26.773438 32.070313 26.871094 32.105469 26.878906 32.109375C27.066406 32.175781 27.257813 32.242188 27.449219 32.304688L27.886719 32.449219C28.105469 32.523438 28.359375 32.609375 28.636719 32.65625C30 32.882813 31.324219 33 32.578125 33C32.726563 33 32.875 32.996094 33.019531 32.996094C44.058594 32.753906 46.929688 23.375 46.957031 23.28125C47.09375 22.808594 46.871094 22.304688 46.425781 22.09375C45.980469 21.882813 45.449219 22.03125 45.171875 22.4375C42.375 26.523438 37.085938 28.25 31.699219 26.828125C31.449219 26.765625 31.207031 26.695313 30.90625 26.597656C30.855469 26.582031 30.8125 26.566406 30.730469 26.535156C30.554688 26.480469 30.382813 26.421875 30.1875 26.347656L29.910156 26.242188C29.75 26.179688 29.589844 26.117188 29.394531 26.03125L29.265625 25.972656C29.027344 25.871094 28.796875 25.757813 28.589844 25.65625L28.019531 25.359375C27.890625 25.296875 27.777344 25.226563 27.601563 25.121094L27.503906 25.066406L27.40625 25.007813C27.261719 24.921875 27.117188 24.832031 26.984375 24.738281L26.890625 24.679688C26.882813 24.675781 26.804688 24.621094 26.796875 24.613281C26.679688 24.539063 26.566406 24.464844 26.457031 24.394531C26.214844 24.222656 25.976563 24.042969 25.699219 23.824219L25.589844 23.734375C23.011719 21.675781 21.105469 18.925781 20.210938 15.976563C19.378906 13.269531 19.996094 9.726563 21.863281 6.5C22.105469 6.082031 22.015625 5.550781 21.644531 5.238281C21.460938 5.082031 21.234375 5 21.007813 5 Z M 10.003906 8C9.765625 8 9.523438 8.085938 9.332031 8.257813C7.421875 9.972656 5.992188 12.195313 5.835938 12.449219C1.75 18.398438 2.539063 27.644531 5.34375 33.296875C5.398438 33.414063 5.457031 33.527344 5.515625 33.640625L5.554688 33.703125C5.605469 33.816406 5.664063 33.933594 5.683594 33.957031C5.714844 34.03125 5.761719 34.113281 5.78125 34.136719C5.828125 34.234375 5.875 34.320313 5.960938 34.46875L6.28125 35.019531C6.328125 35.09375 6.375 35.171875 6.390625 35.199219C6.453125 35.300781 6.519531 35.40625 6.585938 35.511719L6.742188 35.761719C6.789063 35.835938 6.835938 35.902344 6.867188 35.941406C7.023438 36.183594 7.179688 36.425781 7.351563 36.65625C7.359375 36.667969 7.367188 36.675781 7.375 36.683594L7.4375 36.769531C7.578125 36.972656 7.722656 37.167969 7.851563 37.328125L8.421875 38.050781C8.429688 38.058594 8.492188 38.132813 8.496094 38.140625L8.578125 38.234375C8.75 38.445313 8.933594 38.65625 9.117188 38.859375C9.144531 38.890625 9.171875 38.917969 9.199219 38.949219C9.375 39.140625 9.554688 39.332031 9.742188 39.53125L9.921875 39.703125C10.070313 39.859375 10.21875 40.011719 10.375 40.15625C10.375 40.160156 10.449219 40.230469 10.449219 40.230469L10.605469 40.375C10.792969 40.554688 10.988281 40.734375 11.136719 40.859375C11.144531 40.871094 11.285156 40.992188 11.296875 41C11.480469 41.164063 11.664063 41.320313 11.851563 41.472656L12.808594 42.230469C12.96875 42.347656 13.132813 42.464844 13.320313 42.601563C13.382813 42.648438 13.449219 42.695313 13.515625 42.738281C13.542969 42.761719 13.574219 42.785156 13.59375 42.796875L14.3125 43.277344C14.574219 43.449219 14.835938 43.609375 15.15625 43.800781L15.328125 43.898438C15.527344 44.015625 15.730469 44.132813 15.921875 44.234375C16.035156 44.296875 16.148438 44.351563 16.246094 44.402344C16.382813 44.476563 16.53125 44.558594 16.757813 44.667969C16.777344 44.679688 16.9375 44.757813 16.957031 44.765625C17.183594 44.878906 17.414063 44.984375 17.703125 45.113281C17.703125 45.117188 17.796875 45.160156 17.796875 45.160156C18.0625 45.273438 18.320313 45.382813 18.660156 45.519531C18.714844 45.542969 18.769531 45.5625 18.78125 45.566406C19.023438 45.660156 19.277344 45.753906 19.484375 45.828125C19.503906 45.835938 19.609375 45.878906 19.628906 45.886719C19.90625 45.980469 20.179688 46.070313 20.53125 46.179688C20.589844 46.199219 20.652344 46.21875 20.660156 46.21875L20.859375 46.28125C21.101563 46.355469 21.34375 46.433594 21.605469 46.484375C23.464844 46.824219 25.28125 47 27 47L27.003906 47C41.328125 47 45.890625 35.472656 45.9375 35.355469C46.113281 34.890625 45.921875 34.367188 45.484375 34.125C45.054688 33.886719 44.507813 34 44.203125 34.394531C40.527344 39.234375 33.59375 41.03125 25.65625 39.207031C25.464844 39.160156 25.269531 39.105469 25.078125 39.046875L24.703125 38.933594C24.449219 38.855469 24.195313 38.769531 23.949219 38.683594C23.945313 38.683594 23.832031 38.640625 23.832031 38.640625C23.613281 38.566406 23.394531 38.480469 23.203125 38.40625L22.984375 38.320313C22.742188 38.222656 22.5 38.121094 22.265625 38.015625L22.128906 37.957031C21.917969 37.859375 21.714844 37.765625 21.511719 37.664063C21.496094 37.65625 21.335938 37.578125 21.320313 37.574219C21.179688 37.503906 21.039063 37.429688 20.859375 37.332031L20.042969 36.894531C19.960938 36.839844 19.875 36.789063 19.792969 36.746094C19.546875 36.59375 19.292969 36.441406 19.042969 36.28125C18.984375 36.246094 18.933594 36.207031 18.835938 36.140625C18.664063 36.03125 18.496094 35.917969 18.25 35.746094L18.152344 35.675781C17.984375 35.558594 17.820313 35.433594 17.683594 35.332031C17.597656 35.269531 17.511719 35.199219 17.371094 35.09375C17.246094 34.996094 17.121094 34.902344 17.003906 34.808594L16.785156 34.628906C16.601563 34.480469 16.429688 34.324219 16.25 34.171875C16.226563 34.148438 16.207031 34.132813 16.179688 34.113281C15.980469 33.929688 15.777344 33.746094 15.535156 33.515625L14.828125 32.8125C14.65625 32.636719 14.484375 32.457031 14.289063 32.242188C14.109375 32.042969 13.9375 31.84375 13.707031 31.570313L13.285156 31.054688C13.234375 30.980469 13.179688 30.90625 13.113281 30.828125C12.96875 30.632813 12.824219 30.441406 12.679688 30.238281C8.789063 24.878906 7.773438 13.691406 10.804688 9.59375C11.109375 9.183594 11.054688 8.605469 10.671875 8.257813C10.484375 8.085938 10.242188 8 10.003906 8Z" fill="#00000C"></path>
  </symbol>
  <symbol xmlns="http://www.w3.org/2000/svg" viewBox="0 0 48 48" id="link">
    <path fill="#0078d4" d="M7.782,40.218c3.71,3.71,9.725,3.71,13.435,0c1.733-1.733,5.267-5.267,7-7c3.71-3.71,3.71-9.725,0-13.435c-3.71-3.71-9.725-3.71-13.435,0c-1.733,1.733-5.267,5.267-7,7C4.073,30.492,4.073,36.508,7.782,40.218z M11.318,30.318c1.02-1.02,6.237-6.237,7-7c1.757-1.757,4.607-1.757,6.364,0c1.757,1.757,1.757,4.607,0,6.364c-0.763,0.763-5.98,5.98-7,7c-1.757,1.757-4.607,1.757-6.364,0C9.561,34.925,9.561,32.075,11.318,30.318z"></path>
    <path d="M23.609,22.509c0,0-0.609-1.509,0.77-3.131l1.369-1.37c-3.165-1.583-7.022-1.285-9.926,0.888C15,22,16.197,25.439,16.197,25.439c1.04-1.04,1.872-1.872,2.121-2.121C19.758,21.879,21.851,21.613,23.609,22.509z" opacity=".05"></path>
    <path d="M22.827,22.193c-0.082-0.664-0.178-2.024,1.022-3.345c0.07-0.07,0.92-0.94,1.143-1.163c-2.642-1.109-5.689-0.896-8.192,0.57c-0.849,2.578-0.317,5.522,0,6.582c0.743-0.743,1.324-1.324,1.519-1.519C19.548,22.088,21.254,21.714,22.827,22.193z" opacity=".07"></path>
    <path fill="#1b9de2" d="M40.218,7.782c-3.71-3.71-9.725-3.71-13.435,0c-1.733,1.733-5.267,5.267-7,7c-3.71,3.71-3.71,9.725,0,13.435c3.71,3.71,9.725,3.71,13.435,0c1.733-1.733,5.267-5.267,7-7C43.927,17.508,43.927,11.492,40.218,7.782z M36.682,17.682c-1.02,1.02-6.237,6.237-7,7c-1.757,1.757-4.607,1.757-6.364,0c-1.757-1.757-1.757-4.607,0-6.364c0.763-0.763,5.98-5.98,7-7c1.757-1.757,4.607-1.757,6.364,0C38.439,13.075,38.439,15.925,36.682,17.682z"></path>
    <path d="M24.386,25.476c0,0,0.614,1.524-0.765,3.146l-1.369,1.37c3.165,1.583,7.022,1.285,9.926-0.888C33,26,31.803,22.561,31.803,22.561c-1.04,1.04-1.872,1.872-2.121,2.121C28.242,26.121,26.09,26.395,24.386,25.476z" opacity=".05"></path>
    <path d="M25.188,25.806c0.082,0.664,0.163,2.025-1.037,3.346c-0.07,0.07-0.92,0.92-1.143,1.143c2.642,1.109,5.718,0.897,8.196-0.628c0.849-2.578,0.314-5.445-0.004-6.504c-0.743,0.743-1.324,1.324-1.519,1.519C28.452,25.912,26.673,26.271,25.188,25.806z" opacity=".07"></path>
    <path fill="#0078d4" d="M24.682,23.318c1.757,1.757,1.757,4.607,0,6.364c-0.763,0.763-5.98,5.98-7,7l3.536,3.536c1.733-1.733,5.267-5.267,7-7c3.71-3.71,3.71-9.725,0-13.435L24.682,23.318z"></path>
  </symbol>
  <symbol xmlns="http://www.w3.org/2000/svg" viewBox="0 0 48 48" id="linkedin">
    <path fill="#0288D1" d="M42,37c0,2.762-2.238,5-5,5H11c-2.761,0-5-2.238-5-5V11c0-2.762,2.239-5,5-5h26c2.762,0,5,2.238,5,5V37z"></path>
    <path fill="#FFF" d="M12 19H17V36H12zM14.485 17h-.028C12.965 17 12 15.888 12 14.499 12 13.08 12.995 12 14.514 12c1.521 0 2.458 1.08 2.486 2.499C17 15.887 16.035 17 14.485 17zM36 36h-5v-9.099c0-2.198-1.225-3.698-3.192-3.698-1.501 0-2.313 1.012-2.707 1.99C24.957 25.543 25 26.511 25 27v9h-5V19h5v2.616C25.721 20.5 26.85 19 29.738 19c3.578 0 6.261 2.25 6.261 7.274L36 36 36 36z"></path>
  </symbol>
  <symbol xmlns="http://www.w3.org/2000/svg" viewBox="0 0 48 48" id="lunacy">
    <path fill="#2196f3" d="M5.761,13.5c0-4.142,3.358-7.5,7.5-7.5h20.978c4.142,0,7.5,3.358,7.5,7.5v20.978 c0,4.142-3.358,7.5-7.5,7.5H13.261c-4.142,0-7.5-3.358-7.5-7.5V13.5z"></path>
    <path fill="#fff" fill-rule="evenodd" d="M14.011,14H24v19.978h-9.989V14z M24,33.979l9.989-9.989v9.989 H24z M33.989,17.747c-1.735-0.644-3.102-2.011-3.746-3.746c-0.644,1.734-2.012,3.102-3.746,3.746 c1.734,0.645,3.101,2.012,3.746,3.746C30.887,19.759,32.255,18.391,33.989,17.747z" clip-rule="evenodd"></path>
  </symbol>
  <symbol xmlns="http://www.w3.org/2000/svg" viewBox="0 0 48 48" id="mongodb">
    <path fill="#5d4037" d="M42,17.3C42,37.8,24,44,24,44S6,37.8,6,17.3c0-2.5,0.2-4.6,0.4-6.3c0.3-2.5,2-4.5,4.4-5.1 C13.9,5,18.8,4,24,4s10.1,1,13.3,1.9c2.4,0.6,4.1,2.7,4.4,5.1C41.8,12.7,42,14.9,42,17.3z"></path>
    <path fill="#4caf50" d="M24,7c4.9,0,9.5,1,12.5,1.8c1.2,0.3,2,1.3,2.2,2.6c0.2,1.9,0.3,3.9,0.3,5.9c0,15.6-11.5,21.9-15,23.4 c-3.5-1.6-15-7.9-15-23.4c0-2,0.1-4,0.3-5.9c0.1-1.3,1-2.3,2.2-2.6C14.5,8,19.1,7,24,7 M24,4c-5.2,0-10.1,1-13.3,1.9 C8.4,6.5,6.6,8.6,6.4,11C6.2,12.7,6,14.9,6,17.3C6,37.8,24,44,24,44s18-6.2,18-26.7c0-2.5-0.2-4.6-0.4-6.3c-0.3-2.5-2-4.5-4.4-5.1 C34.1,5,29.2,4,24,4L24,4z"></path>
    <path fill="#dcedc8" d="M23 28H25V36H23z"></path>
    <path fill="#4caf50" d="M24,10c0,0-6,5-6,13c0,5.2,3.3,8.5,5,10l1-3l1,3c1.7-1.5,5-4.8,5-10C30,15,24,10,24,10z"></path>
    <path fill="#81c784" d="M24,10c0,0-6,5-6,13c0,5.2,3.3,8.5,5,10l1-3V10z"></path>
  </symbol>
  <symbol xmlns="http://www.w3.org/2000/svg" viewBox="0 0 24 24" id="mysql">
    <path d="M3.125 1C2.219 1 1.5030625 1.4805 1.1640625 2.3125C1.0570625 2.5695 1.0029531 2.8420469 1.0019531 3.1230469C1.0009531 4.0540469 1.6009375 4.8097188 1.9609375 5.2617188C2.0239375 5.3407187 2.080625 5.4110938 2.140625 5.4960938L2.3027344 5.7109375C2.4637344 5.9219375 2.6470781 6.16125 2.7050781 6.28125C2.7240781 6.33625 2.7492031 6.4326875 2.7832031 6.5546875C2.9402031 7.1196875 3.2332187 8.16975 3.6992188 8.96875C3.8872187 9.29075 4.1517969 9.6954687 4.3417969 9.9804688C4.2147969 10.616469 4 11.788 4 12.5C4 13.75 4.2592188 14.753875 4.8242188 15.671875C5.0332187 15.999875 5.671 17 6.75 17C7.133 17 7.7694062 16.850391 7.9414062 15.900391C8.7064063 16.887391 10 18.125 12 19C12 19 8.2507969 14.625438 7.5917969 11.898438C7.5917969 11.898437 6.874625 12.625375 6.265625 14.109375C6.083625 13.651375 6 13.135 6 12.5C6 11.873 6.2758125 10.471375 6.3828125 9.984375L6.4765625 9.5605469L6.2304688 9.203125C6.2264687 9.196125 5.7227344 8.4688906 5.4277344 7.9628906C5.0917344 7.3868906 4.8439375 6.4955781 4.7109375 6.0175781C4.6459375 5.7845781 4.594875 5.6159531 4.546875 5.5019531C4.371875 5.1229531 4.115625 4.7900937 3.890625 4.4960938L3.765625 4.3300781C3.702625 4.2390781 3.6193906 4.133625 3.5253906 4.015625C3.3423906 3.785625 3.0017188 3.3570312 3.0117188 3.0820312L3.1230469 3.0039062L3.125 3C3.92 3 4.9440781 3.5643437 5.3300781 3.7773438C5.4560781 3.8463438 5.5486563 3.8940156 5.5976562 3.9160156L5.7714844 3.9921875L6.1132812 4.0039062C6.5602813 4.0139062 7.9189063 4.0456875 8.8789062 4.4296875C10.629906 5.1296875 11.598031 5.830375 12.582031 7.109375C14.906031 10.131375 15.763484 14.044984 15.771484 14.083984L15.896484 14.648438L16.443359 14.826172C16.462359 14.833172 17.992922 15.344641 19.419922 16.681641C17.624922 17.125641 17 18 17 18C17 18 17.476 18.928 19.75 20.375C21.125 21.25 21.875 21.875 23 23C23 23 21.875688 20.499813 20.304688 18.507812C21.500687 18.124813 22.970703 17.925781 22.970703 17.925781L22.060547 16.664062C20.562547 14.587063 18.553656 13.538859 17.597656 13.130859C17.265656 11.864859 16.262969 8.614625 14.167969 5.890625C12.968969 4.331625 11.693094 3.3993125 9.6210938 2.5703125C8.3940937 2.0803125 6.9187188 2.0218594 6.2617188 2.0058594C5.6867187 1.6898594 4.409 1 3.125 1 z M 7.1875 5C7.1875 5 6.75 5 6.25 5.125L7.625 6.9980469C8 6.5000469 8 5.9179688 8 5.9179688C8 5.9179688 7.7505 5.25 7.1875 5 z" fill="#00000C"></path>
  </symbol>
  <symbol xmlns="http://www.w3.org/2000/svg" baseProfile="basic" viewBox="0 0 48 48" id="nodejs">
    <path fill="#21a366" d="M24.007,45.419c-0.574,0-1.143-0.15-1.646-0.44l-5.24-3.103c-0.783-0.438-0.401-0.593-0.143-0.682c1.044-0.365,1.255-0.448,2.369-1.081c0.117-0.067,0.27-0.043,0.39,0.028l4.026,2.389c0.145,0.079,0.352,0.079,0.486,0l15.697-9.061c0.145-0.083,0.24-0.251,0.24-0.424V14.932c0-0.181-0.094-0.342-0.243-0.432L24.253,5.446c-0.145-0.086-0.338-0.086-0.483,0L8.082,14.499c-0.152,0.086-0.249,0.255-0.249,0.428v18.114c0,0.173,0.094,0.338,0.244,0.42l4.299,2.483c2.334,1.167,3.76-0.208,3.76-1.591V16.476c0-0.255,0.2-0.452,0.456-0.452h1.988c0.248,0,0.452,0.196,0.452,0.452v17.886c0,3.112-1.697,4.9-4.648,4.9c-0.908,0-1.623,0-3.619-0.982l-4.118-2.373C5.629,35.317,5,34.216,5,33.042V14.928c0-1.179,0.629-2.279,1.646-2.861L22.36,3.002c0.994-0.562,2.314-0.562,3.301,0l15.694,9.069C42.367,12.656,43,13.753,43,14.932v18.114c0,1.175-0.633,2.271-1.646,2.861L25.66,44.971c-0.503,0.291-1.073,0.44-1.654,0.44"></path>
    <path fill="#21a366" d="M28.856,32.937c-6.868,0-8.308-3.153-8.308-5.797c0-0.251,0.203-0.452,0.455-0.452h2.028c0.224,0,0.413,0.163,0.448,0.384c0.306,2.066,1.218,3.108,5.371,3.108c3.308,0,4.715-0.747,4.715-2.502c0-1.01-0.401-1.76-5.54-2.263c-4.299-0.424-6.955-1.371-6.955-4.809c0-3.167,2.672-5.053,7.147-5.053c5.026,0,7.517,1.745,7.831,5.493c0.012,0.13-0.035,0.255-0.122,0.35c-0.086,0.09-0.208,0.145-0.334,0.145h-2.039c-0.212,0-0.397-0.149-0.44-0.354c-0.491-2.173-1.678-2.868-4.904-2.868c-3.611,0-4.031,1.257-4.031,2.2c0,1.143,0.495,1.477,5.367,2.122c4.825,0.64,7.116,1.544,7.116,4.935c0,3.418-2.853,5.379-7.827,5.379"></path>
  </symbol>
  <symbol xmlns="http://www.w3.org/2000/svg" viewBox="0 0 48 48" id="photoshop">
    <path fill="#03A9F4" d="M6,10c0-2.209,1.791-4,4-4h28c2.209,0,4,1.791,4,4v28c0,2.209-1.791,4-4,4H10c-2.209,0-4-1.791-4-4V10z"></path>
    <path fill="#020F16" d="M20.016,19.174h-2.002v4.434h1.973c0.547,0,0.97-0.179,1.27-0.537s0.449-0.879,0.449-1.563c0-0.71-0.153-1.274-0.459-1.694S20.53,19.181,20.016,19.174z"></path>
    <path fill="#020F16" d="M9,9v30h30V9H9z M23.365,24.789C22.539,25.597,21.393,26,19.928,26h-1.914v5h-2.871V16.781h4.844c1.406,0,2.528,0.437,3.364,1.309s1.255,2.005,1.255,3.398S24.192,23.981,23.365,24.789z M32.682,30.336c-0.709,0.573-1.641,0.859-2.793,0.859c-0.775,0-1.459-0.151-2.051-0.454s-1.057-0.725-1.392-1.265s-0.503-1.123-0.503-1.748h2.627c0.014,0.481,0.125,0.843,0.337,1.084s0.558,0.361,1.04,0.361c0.742,0,1.113-0.335,1.113-1.006c0-0.234-0.112-0.451-0.337-0.649S30,27.052,29.225,26.713c-1.139-0.462-1.922-0.94-2.349-1.436s-0.64-1.11-0.64-1.846c0-0.925,0.334-1.688,1.001-2.29s1.552-0.903,2.651-0.903c1.158,0,2.086,0.3,2.783,0.898s1.045,1.403,1.045,2.412h-2.764c0-0.859-0.357-1.289-1.074-1.289c-0.293,0-0.533,0.091-0.723,0.273s-0.283,0.437-0.283,0.762c0,0.234,0.104,0.441,0.313,0.62s0.699,0.435,1.475,0.767c1.127,0.417,1.922,0.881,2.388,1.392s0.698,1.174,0.698,1.987C33.746,29.005,33.391,29.763,32.682,30.336z"></path>
  </symbol>
  <symbol xmlns="http://www.w3.org/2000/svg" viewBox="0 0 48 48" id="python">
    <linearGradient id="goqfu1ZNmEnUrQDJEQ1bUa" x1="10.458" x2="26.314" y1="12.972" y2="26.277" gradientUnits="userSpaceOnUse">
      <stop offset="0" stop-color="#26abe7"></stop>
      <stop offset="1" stop-color="#086dbf"></stop>
    </linearGradient>
    <path fill="url(#goqfu1ZNmEnUrQDJEQ1bUa)" d="M24.047,5c-1.555,0.005-2.633,0.142-3.936,0.367c-3.848,0.67-4.549,2.077-4.549,4.67V14h9v2 H15.22h-4.35c-2.636,0-4.943,1.242-5.674,4.219c-0.826,3.417-0.863,5.557,0,9.125C5.851,32.005,7.294,34,9.931,34h3.632v-5.104 c0-2.966,2.686-5.896,5.764-5.896h7.236c2.523,0,5-1.862,5-4.377v-8.586c0-2.439-1.759-4.263-4.218-4.672 C27.406,5.359,25.589,4.994,24.047,5z M19.063,9c0.821,0,1.5,0.677,1.5,1.502c0,0.833-0.679,1.498-1.5,1.498 c-0.837,0-1.5-0.664-1.5-1.498C17.563,9.68,18.226,9,19.063,9z"></path>
    <linearGradient id="goqfu1ZNmEnUrQDJEQ1bUb" x1="35.334" x2="23.517" y1="37.911" y2="21.034" gradientUnits="userSpaceOnUse">
      <stop offset="0" stop-color="#feb705"></stop>
      <stop offset="1" stop-color="#ffda1c"></stop>
    </linearGradient>
    <path fill="url(#goqfu1ZNmEnUrQDJEQ1bUb)" d="M23.078,43c1.555-0.005,2.633-0.142,3.936-0.367c3.848-0.67,4.549-2.077,4.549-4.67V34h-9v-2 h9.343h4.35c2.636,0,4.943-1.242,5.674-4.219c0.826-3.417,0.863-5.557,0-9.125C41.274,15.995,39.831,14,37.194,14h-3.632v5.104 c0,2.966-2.686,5.896-5.764,5.896h-7.236c-2.523,0-5,1.862-5,4.377v8.586c0,2.439,1.759,4.263,4.218,4.672 C19.719,42.641,21.536,43.006,23.078,43z M28.063,39c-0.821,0-1.5-0.677-1.5-1.502c0-0.833,0.679-1.498,1.5-1.498 c0.837,0,1.5,0.664,1.5,1.498C29.563,38.32,28.899,39,28.063,39z"></path>
  </symbol>
  <symbol xmlns="http://www.w3.org/2000/svg" viewBox="0 0 64 64" id="react">
    <path d="m666.3 296.5c0-32.5-40.7-63.3-103.1-82.4 14.4-63.6 8-114.2-20.2-130.4-6.5-3.8-14.1-5.6-22.4-5.6v22.3c4.6 0 8.3.9 11.4 2.6 13.6 7.8 19.5 37.5 14.9 75.7-1.1 9.4-2.9 19.3-5.1 29.4-19.6-4.8-41-8.5-63.5-10.9-13.5-18.5-27.5-35.3-41.6-50 32.6-30.3 63.2-46.9 84-46.9v-22.3c-27.5 0-63.5 19.6-99.9 53.6-36.4-33.8-72.4-53.2-99.9-53.2v22.3c20.7 0 51.4 16.5 84 46.6-14 14.7-28 31.4-41.3 49.9-22.6 2.4-44 6.1-63.6 11-2.3-10-4-19.7-5.2-29-4.7-38.2 1.1-67.9 14.6-75.8 3-1.8 6.9-2.6 11.5-2.6v-22.3c-8.4 0-16 1.8-22.6 5.6-28.1 16.2-34.4 66.7-19.9 130.1-62.2 19.2-102.7 49.9-102.7 82.3 0 32.5 40.7 63.3 103.1 82.4-14.4 63.6-8 114.2 20.2 130.4 6.5 3.8 14.1 5.6 22.5 5.6 27.5 0 63.5-19.6 99.9-53.6 36.4 33.8 72.4 53.2 99.9 53.2 8.4 0 16-1.8 22.6-5.6 28.1-16.2 34.4-66.7 19.9-130.1 62-19.1 102.5-49.9 102.5-82.3zm-130.2-66.7c-3.7 12.9-8.3 26.2-13.5 39.5-4.1-8-8.4-16-13.1-24-4.6-8-9.5-15.8-14.4-23.4 14.2 2.1 27.9 4.7 41 7.9zm-45.8 106.5c-7.8 13.5-15.8 26.3-24.1 38.2-14.9 1.3-30 2-45.2 2-15.1 0-30.2-.7-45-1.9-8.3-11.9-16.4-24.6-24.2-38-7.6-13.1-14.5-26.4-20.8-39.8 6.2-13.4 13.2-26.8 20.7-39.9 7.8-13.5 15.8-26.3 24.1-38.2 14.9-1.3 30-2 45.2-2 15.1 0 30.2.7 45 1.9 8.3 11.9 16.4 24.6 24.2 38 7.6 13.1 14.5 26.4 20.8 39.8-6.3 13.4-13.2 26.8-20.7 39.9zm32.3-13c5.4 13.4 10 26.8 13.8 39.8-13.1 3.2-26.9 5.9-41.2 8 4.9-7.7 9.8-15.6 14.4-23.7 4.6-8 8.9-16.1 13-24.1zm-101.4 106.7c-9.3-9.6-18.6-20.3-27.8-32 9 .4 18.2.7 27.5.7 9.4 0 18.7-.2 27.8-.7-9 11.7-18.3 22.4-27.5 32zm-74.4-58.9c-14.2-2.1-27.9-4.7-41-7.9 3.7-12.9 8.3-26.2 13.5-39.5 4.1 8 8.4 16 13.1 24s9.5 15.8 14.4 23.4zm73.9-208.1c9.3 9.6 18.6 20.3 27.8 32-9-.4-18.2-.7-27.5-.7-9.4 0-18.7.2-27.8.7 9-11.7 18.3-22.4 27.5-32zm-74 58.9c-4.9 7.7-9.8 15.6-14.4 23.7-4.6 8-8.9 16-13 24-5.4-13.4-10-26.8-13.8-39.8 13.1-3.1 26.9-5.8 41.2-7.9zm-90.5 125.2c-35.4-15.1-58.3-34.9-58.3-50.6s22.9-35.6 58.3-50.6c8.6-3.7 18-7 27.7-10.1 5.7 19.6 13.2 40 22.5 60.9-9.2 20.8-16.6 41.1-22.2 60.6-9.9-3.1-19.3-6.5-28-10.2zm53.8 142.9c-13.6-7.8-19.5-37.5-14.9-75.7 1.1-9.4 2.9-19.3 5.1-29.4 19.6 4.8 41 8.5 63.5 10.9 13.5 18.5 27.5 35.3 41.6 50-32.6 30.3-63.2 46.9-84 46.9-4.5-.1-8.3-1-11.3-2.7zm237.2-76.2c4.7 38.2-1.1 67.9-14.6 75.8-3 1.8-6.9 2.6-11.5 2.6-20.7 0-51.4-16.5-84-46.6 14-14.7 28-31.4 41.3-49.9 22.6-2.4 44-6.1 63.6-11 2.3 10.1 4.1 19.8 5.2 29.1zm38.5-66.7c-8.6 3.7-18 7-27.7 10.1-5.7-19.6-13.2-40-22.5-60.9 9.2-20.8 16.6-41.1 22.2-60.6 9.9 3.1 19.3 6.5 28.1 10.2 35.4 15.1 58.3 34.9 58.3 50.6-.1 15.7-23 35.6-58.4 50.6z"/><circle cx="420.9" cy="296.5" r="45.7"/>
    </symbol>
  <symbol fill="none" xmlns="http://www.w3.org/2000/svg" viewBox="670.088 32.46226489559854 2224.1720000000005 2666.4877351044024" id="reactnative">
    <g fill="#61dafb">
      <path d="M2870 1250.22c0-145.34-182.01-283.079-461.07-368.495 64.4-284.424 35.78-510.711-90.34-583.159-29.07-16.994-63.05-25.044-100.17-25.044v99.728c20.57 0 37.12 4.025 50.98 11.627 60.82 34.882 87.21 167.703 66.63 338.536-4.91 42.038-12.96 86.311-22.8 131.479-87.66-21.466-183.36-38.012-283.98-48.745-60.37-82.734-122.98-157.865-186.04-223.604 145.79-135.504 282.64-209.741 375.66-209.741v-99.727c-122.99 0-283.98 87.653-446.76 239.703-162.79-151.156-323.78-237.914-446.76-237.914v99.727c92.57 0 229.86 73.79 375.65 208.399-62.61 65.74-125.22 140.423-184.7 223.157-101.07 10.733-196.77 27.279-284.42 49.192-10.29-44.72-17.89-88.1-23.26-129.69-21.01-170.833 4.92-303.654 65.3-338.983 13.41-8.05 30.85-11.627 51.43-11.627v-99.728c-37.57 0-71.56 8.05-101.07 25.044-125.67 72.447-153.84 298.287-89 581.817C857.119 968.036 676 1105.33 676 1250.22c0 145.35 182.013 283.09 461.07 368.5-64.4 284.43-35.78 510.71 90.34 583.16 29.07 16.99 63.05 25.04 100.62 25.04 122.98 0 283.98-87.65 446.76-239.7 162.78 151.16 323.78 237.92 446.76 237.92 37.56 0 71.55-8.05 101.07-25.05 125.66-72.45 153.84-298.29 88.99-581.81 277.27-85.42 458.39-223.16 458.39-368.06zm-582.26-298.284c-16.55 57.694-37.12 117.164-60.38 176.644-18.33-35.77-37.56-71.55-58.58-107.33-20.57-35.773-42.49-70.655-64.4-104.643 63.5 9.391 124.77 21.019 183.36 35.329zm-204.83 476.274c-34.88 60.38-70.65 117.62-107.77 170.84-66.64 5.81-134.16 8.94-202.14 8.94-67.53 0-135.06-3.13-201.24-8.5-37.12-53.22-73.35-110.01-108.23-169.94-33.99-58.58-64.84-118.06-93.02-177.98 27.73-59.93 59.03-119.86 92.58-178.44 34.88-60.37 70.65-117.616 107.77-170.834 66.64-5.814 134.16-8.944 202.14-8.944 67.53 0 135.06 3.13 201.24 8.497 37.12 53.218 73.35 110.011 108.23 169.941 33.99 58.58 64.84 118.06 93.02 177.99-28.18 59.92-59.03 119.85-92.58 178.43zm144.45-58.13a1918.154 1918.154 0 0 1 61.72 177.98c-58.59 14.31-120.3 26.39-184.25 35.78 21.91-34.43 43.82-69.76 64.4-105.99 20.57-35.77 39.8-72 58.13-107.77zm-453.47 477.17c-41.59-42.94-83.18-90.79-124.32-143.11 40.25 1.79 81.39 3.13 122.98 3.13 42.04 0 83.63-.89 124.33-3.13a1746.499 1746.499 0 0 1-122.99 143.11zm-332.72-263.41c-63.5-9.39-124.77-21.02-183.35-35.33 16.54-57.69 37.12-117.17 60.37-176.65 18.34 35.78 37.57 71.56 58.58 107.33 21.02 35.78 42.49 70.66 64.4 104.65zm330.49-930.638c41.59 42.931 83.18 90.783 124.32 143.106-40.25-1.789-81.39-3.13-122.98-3.13-42.04 0-83.63.894-124.32 3.13a1746.3 1746.3 0 0 1 122.98-143.106zm-330.94 263.405c-21.91 34.435-43.82 69.764-64.39 105.983-20.57 35.78-39.8 71.56-58.14 107.33a1914.757 1914.757 0 0 1-61.71-177.984c58.58-13.863 120.29-25.938 184.24-35.329zM1036 1476.51c-158.309-67.53-260.72-156.07-260.72-226.29 0-70.21 102.411-159.2 260.72-226.28 38.46-16.55 80.5-31.308 123.88-45.171 25.49 87.651 59.03 178.881 100.62 272.351-41.14 93.02-74.24 183.8-99.28 271.01-44.27-13.87-86.31-29.07-125.22-45.62zm240.6 639.06c-60.82-34.88-87.21-167.7-66.63-338.54 4.92-42.03 12.96-86.31 22.8-131.48 87.66 21.47 183.36 38.02 283.98 48.75 60.37 82.73 122.98 157.86 186.04 223.6-145.79 135.51-282.64 209.74-375.66 209.74-20.12-.44-37.11-4.47-50.53-12.07zm1060.78-340.77c21.01 170.83-4.92 303.65-65.3 338.98-13.41 8.05-30.85 11.63-51.43 11.63-92.57 0-229.86-73.79-375.65-208.4 62.61-65.74 125.22-140.42 184.7-223.16 101.07-10.73 196.77-27.28 284.42-49.19 10.29 45.17 18.34 88.55 23.26 130.14zm172.17-298.29c-38.46 16.55-80.5 31.31-123.88 45.17-25.49-87.65-59.03-178.88-100.62-272.35 41.15-93.02 74.24-183.8 99.28-271.009 44.28 13.864 86.31 29.069 125.67 45.619 158.31 67.52 260.72 156.07 260.72 226.28-.45 70.22-102.86 159.21-261.17 226.29z"></path>
      <path d="M1772.55 1454.6c112.88 0 204.38-91.5 204.38-204.38 0-112.87-91.5-204.37-204.38-204.37-112.87 0-204.37 91.5-204.37 204.37 0 112.88 91.5 204.38 204.37 204.38zM775.625 2578.81H708.16V2695h-38.072v-287.22h95.082c32.351 0 57.207 7.37 74.566 22.1 17.491 14.72 26.237 36.16 26.237 64.3 0 17.89-4.866 33.47-14.598 46.76-9.6 13.28-23.014 23.21-40.242 29.78l67.465 121.91v2.37h-40.637zm-67.465-30.97h58.194c18.806 0 33.732-4.87 44.779-14.6 11.178-9.73 16.767-22.75 16.767-39.06 0-17.75-5.326-31.36-15.978-40.83-10.521-9.47-25.776-14.27-45.766-14.4H708.16zm293.93 151.11c-28.936 0-52.477-9.47-70.625-28.41-18.149-19.07-27.223-44.52-27.223-76.34v-6.71c0-21.17 4.011-40.04 12.033-56.61 8.154-16.71 19.464-29.73 33.93-39.06 14.598-9.47 30.379-14.21 47.344-14.21 27.751 0 49.321 9.14 64.701 27.42 15.39 18.28 23.08 44.45 23.08 78.51v15.19H940.736c.526 21.05 6.642 38.08 18.346 51.1 11.836 12.88 26.828 19.33 44.978 19.33 12.89 0 23.8-2.63 32.74-7.89 8.95-5.26 16.77-12.23 23.48-20.91l22.29 17.36c-17.89 27.48-44.71 41.23-80.48 41.23zm-4.541-191.35c-14.729 0-27.091 5.39-37.086 16.17-9.995 10.66-16.176 25.65-18.543 44.98h106.92v-2.76c-1.05-18.54-6.05-32.88-14.99-43.01-8.95-10.25-21.05-15.38-36.301-15.38zM1259.52 2695c-2.11-4.21-3.82-11.7-5.13-22.49-16.97 17.62-37.22 26.44-60.76 26.44-21.04 0-38.33-5.92-51.88-17.76-13.41-11.97-20.12-27.09-20.12-45.37 0-22.22 8.42-39.45 25.25-51.68 16.96-12.37 40.77-18.55 71.41-18.55h35.51v-16.76c0-12.76-3.82-22.89-11.44-30.38-7.63-7.63-18.88-11.44-33.74-11.44-13.02 0-23.93 3.28-32.74 9.86-8.81 6.57-13.22 14.53-13.22 23.87h-36.69c0-10.65 3.75-20.91 11.24-30.78 7.63-9.99 17.89-17.88 30.78-23.67 13.02-5.78 27.28-8.68 42.8-8.68 24.6 0 43.86 6.18 57.8 18.55 13.94 12.23 21.17 29.13 21.7 50.69v98.24c0 19.6 2.5 35.18 7.5 46.75v3.16zm-60.56-27.81c11.44 0 22.29-2.96 32.55-8.88 10.25-5.92 17.68-13.61 22.29-23.08v-43.79h-28.61c-44.71 0-67.07 13.08-67.07 39.25 0 11.44 3.82 20.39 11.44 26.83 7.63 6.44 17.43 9.67 29.4 9.67zm234.15 1.97c13.02 0 24.4-3.95 34.13-11.84s15.12-17.75 16.17-29.59h34.53c-.66 12.23-4.87 23.87-12.63 34.92s-18.15 19.86-31.17 26.43c-12.89 6.58-26.56 9.87-41.03 9.87-29.06 0-52.21-9.67-69.44-29-17.09-19.47-25.64-46.03-25.64-79.7v-6.11c0-20.78 3.81-39.26 11.44-55.43 7.63-16.18 18.54-28.74 32.75-37.68 14.33-8.95 31.23-13.42 50.69-13.42 23.94 0 43.8 7.17 59.58 21.51 15.91 14.33 24.39 32.94 25.45 55.82h-34.53c-1.05-13.81-6.31-25.12-15.78-33.93-9.33-8.94-20.91-13.41-34.72-13.41-18.54 0-32.94 6.7-43.2 20.12-10.12 13.28-15.19 32.55-15.19 57.8v6.9c0 24.59 5.07 43.53 15.19 56.81 10.13 13.29 24.6 19.93 43.4 19.93zm175.37-239.28v51.68h39.85v28.21h-39.85v132.36c0 8.55 1.78 14.99 5.33 19.33 3.55 4.21 9.6 6.32 18.15 6.32 4.2 0 9.99-.79 17.35-2.37V2695c-9.6 2.63-18.93 3.95-28.01 3.95-16.3 0-28.6-4.94-36.89-14.8-8.28-9.86-12.42-23.87-12.42-42.02v-132.36h-38.87v-28.21h38.87v-51.68zM2017.81 2695h-38.08l-144.59-221.33V2695h-38.07v-287.22h38.07l144.99 222.32v-222.32h37.68zm193.32 0c-2.11-4.21-3.82-11.7-5.13-22.49-16.97 17.62-37.22 26.44-60.76 26.44-21.04 0-38.34-5.92-51.88-17.76-13.41-11.97-20.12-27.09-20.12-45.37 0-22.22 8.41-39.45 25.25-51.68 16.96-12.37 40.77-18.55 71.41-18.55h35.51v-16.76c0-12.76-3.82-22.89-11.45-30.38-7.62-7.63-18.87-11.44-33.73-11.44-13.02 0-23.93 3.28-32.74 9.86-8.81 6.57-13.22 14.53-13.22 23.87h-36.69c0-10.65 3.75-20.91 11.24-30.78 7.63-9.99 17.89-17.88 30.78-23.67 13.02-5.78 27.28-8.68 42.8-8.68 24.59 0 43.86 6.18 57.8 18.55 13.94 12.23 21.17 29.13 21.7 50.69v98.24c0 19.6 2.5 35.18 7.5 46.75v3.16zm-60.56-27.81c11.44 0 22.29-2.96 32.55-8.88 10.25-5.92 17.68-13.61 22.29-23.08v-43.79h-28.61c-44.71 0-67.07 13.08-67.07 39.25 0 11.44 3.82 20.39 11.44 26.83 7.63 6.44 17.43 9.67 29.4 9.67zm198.05-237.31v51.68h39.85v28.21h-39.85v132.36c0 8.55 1.78 14.99 5.33 19.33 3.55 4.21 9.6 6.32 18.15 6.32 4.2 0 9.99-.79 17.36-2.37V2695c-9.61 2.63-18.94 3.95-28.02 3.95-16.3 0-28.6-4.94-36.89-14.8-8.28-9.86-12.42-23.87-12.42-42.02v-132.36h-38.86v-28.21h38.86v-51.68zM2470.93 2695h-36.5v-213.44h36.5zm-39.46-270.06c0-5.91 1.78-10.91 5.33-14.99 3.68-4.08 9.07-6.11 16.17-6.11 7.11 0 12.5 2.03 16.18 6.11s5.52 9.08 5.52 14.99c0 5.92-1.84 10.85-5.52 14.8-3.68 3.94-9.07 5.92-16.18 5.92-7.1 0-12.49-1.98-16.17-5.92-3.55-3.95-5.33-8.88-5.33-14.8zm168.47 220.55l52.86-163.93h37.29L2613.55 2695h-27.82l-77.32-213.44h37.28zm211.07 53.46c-28.93 0-52.47-9.47-70.62-28.41-18.15-19.07-27.22-44.52-27.22-76.34v-6.71c0-21.17 4.01-40.04 12.03-56.61 8.15-16.71 19.46-29.73 33.93-39.06 14.6-9.47 30.38-14.21 47.34-14.21 27.75 0 49.32 9.14 64.71 27.42 15.38 18.28 23.08 44.45 23.08 78.51v15.19h-144.6c.53 21.05 6.64 38.08 18.35 51.1 11.83 12.88 26.83 19.33 44.97 19.33 12.89 0 23.81-2.63 32.75-7.89s16.77-12.23 23.48-20.91l22.29 17.36c-17.89 27.48-44.72 41.23-80.49 41.23zm-4.54-191.35c-14.72 0-27.09 5.39-37.08 16.17-10 10.66-16.18 25.65-18.54 44.98h106.91v-2.76c-1.05-18.54-6.05-32.88-14.99-43.01-8.94-10.25-21.04-15.38-36.3-15.38z"></path>
    </g>
  </symbol>
  <symbol xmlns="http://www.w3.org/2000/svg" viewBox="0 0 48 48" id="redux">
    <path fill="#7e57c2" d="M23,4c-6.617,0-12,7.27-12,16.205c0,4.834,1.582,9.169,4.078,12.136C15.03,32.554,15,32.773,15,33c0,1.657,1.343,3,3,3s3-1.343,3-3s-1.343-3-3-3c-0.315,0-0.612,0.062-0.897,0.152C15.206,27.731,14,24.175,14,20.205C14,12.924,18.037,7,23,7c3.837,0,7.111,3.547,8.404,8.518c1.122,0.346,2.237,0.782,3.33,1.308C33.579,9.508,28.759,4,23,4z"></path>
    <path fill="#7e57c2" d="M35.507,20.084c-3.947-2.392-8.374-3.442-12.182-2.959C22.775,16.444,21.943,16,21,16c-1.657,0-3,1.343-3,3s1.343,3,3,3c1.272,0,2.353-0.795,2.789-1.912c3.118-0.379,6.812,0.531,10.163,2.563c6.403,3.881,9.67,10.569,7.282,14.911c-0.827,1.504-2.286,2.572-4.218,3.09c-2.286,0.611-5.007,0.394-7.727-0.528c-0.839,0.772-1.749,1.498-2.725,2.168c2.552,1.117,5.196,1.704,7.669,1.704c1.24,0,2.438-0.147,3.559-0.447c2.741-0.733,4.841-2.304,6.071-4.542C47.016,33.276,43.267,24.787,35.507,20.084z"></path>
    <path fill="#7e57c2" d="M35,28.992C35,27.34,33.657,26,32,26s-3,1.34-3,2.992c0,0.669,0.228,1.281,0.6,1.779c-1.279,2.802-3.744,5.567-7.062,7.578c-3.865,2.344-8.185,3.202-11.555,2.302c-1.932-0.518-3.391-1.586-4.218-3.09c-1.702-3.094-0.521-7.376,2.61-10.988c-0.323-1.144-0.562-2.34-0.706-3.575c-5.07,4.797-7.109,11.323-4.532,16.009c1.23,2.238,3.33,3.809,6.071,4.542c1.121,0.3,2.318,0.447,3.559,0.447c3.346,0,7.007-1.068,10.326-3.08c3.836-2.325,6.683-5.577,8.209-8.962C33.815,31.801,35,30.541,35,28.992z"></path>
  </symbol>
  <symbol xmlns="http://www.w3.org/2000/svg" viewBox="0 0 48 48" id="sass">
    <path fill="#f06292" d="M39.867,25.956c-1.538,0.008-2.87,0.377-3.986,0.928c-0.408-0.815-0.822-1.532-0.891-2.065c-0.081-0.622-0.175-0.994-0.077-1.735c0.098-0.741,0.527-1.791,0.521-1.87c-0.006-0.079-0.096-0.456-0.983-0.463c-0.887-0.006-1.646,0.171-1.735,0.405c-0.089,0.234-0.26,0.761-0.366,1.311c-0.155,0.804-1.771,3.673-2.688,5.173c-0.3-0.586-0.555-1.102-0.608-1.51c-0.081-0.622-0.175-0.994-0.077-1.735c0.098-0.741,0.527-1.791,0.521-1.87c-0.006-0.079-0.096-0.456-0.983-0.463c-0.887-0.006-1.646,0.171-1.735,0.405c-0.089,0.234-0.185,0.781-0.366,1.311c-0.182,0.529-2.329,5.314-2.892,6.555c-0.287,0.632-0.536,1.14-0.712,1.486c-0.001-0.001-0.001-0.002-0.001-0.002s-0.011,0.023-0.029,0.062c-0.151,0.295-0.24,0.458-0.24,0.458s0.001,0.002,0.003,0.006c-0.12,0.217-0.248,0.418-0.311,0.418c-0.044,0-0.133-0.577,0.019-1.369c0.32-1.66,1.087-4.248,1.08-4.338c-0.004-0.046,0.143-0.497-0.501-0.733c-0.626-0.229-0.849,0.153-0.906,0.154c-0.055,0.001-0.096,0.135-0.096,0.135s0.697-2.911-1.33-2.911c-1.268,0-3.024,1.387-3.889,2.644c-0.546,0.298-1.715,0.936-2.954,1.617c-0.476,0.262-0.962,0.529-1.423,0.783c-0.031-0.035-0.063-0.069-0.095-0.104c-2.459-2.623-7.003-4.478-6.811-8.005c0.07-1.282,0.516-4.658,8.733-8.752c6.731-3.354,12.12-2.431,13.051-0.386c1.33,2.923-2.88,8.354-9.87,9.138c-2.663,0.299-4.066-0.734-4.415-1.118c-0.367-0.405-0.422-0.423-0.559-0.347c-0.223,0.124-0.082,0.481,0,0.694c0.209,0.543,1.065,1.506,2.525,1.986c1.285,0.422,4.412,0.653,8.193-0.81c4.236-1.638,7.543-6.196,6.571-10.005c-0.988-3.874-7.412-5.148-13.492-2.988C12.44,9.332,8.523,11.35,5.706,13.984c-3.349,3.132-3.883,5.859-3.663,6.998c0.782,4.048,6.361,6.684,8.595,8.637c-0.11,0.061-0.214,0.118-0.308,0.17c-1.12,0.554-5.373,2.78-6.437,5.131c-1.207,2.667,0.192,4.581,1.118,4.839c2.869,0.798,5.813-0.638,7.396-2.998c1.582-2.359,1.389-5.432,0.663-6.834c-0.009-0.017-0.019-0.034-0.028-0.052c0.289-0.171,0.584-0.345,0.876-0.517c0.57-0.335,1.13-0.647,1.615-0.911c-0.272,0.744-0.471,1.637-0.574,2.926c-0.122,1.514,0.499,3.471,1.311,4.241c0.358,0.339,0.788,0.347,1.06,0.347c0.945,0,1.376-0.786,1.851-1.716c0.582-1.14,1.099-2.468,1.099-2.468s-0.648,3.586,1.118,3.586c0.644,0,1.291-0.835,1.58-1.26c0.001,0.005,0.001,0.007,0.001,0.007s0.017-0.028,0.05-0.083c0.067-0.102,0.105-0.167,0.105-0.167s0.001-0.007,0.003-0.019c0.259-0.449,0.833-1.473,1.693-3.162c1.112-2.182,2.178-4.916,2.178-4.916s0.099,0.668,0.424,1.774c0.191,0.65,0.597,1.369,0.918,2.059c-0.258,0.358-0.416,0.563-0.416,0.563s0.001,0.004,0.004,0.011c-0.206,0.274-0.437,0.569-0.679,0.857c-0.878,1.045-1.923,2.239-2.063,2.583c-0.165,0.406-0.126,0.704,0.193,0.945c0.233,0.175,0.647,0.203,1.08,0.174c0.789-0.053,1.343-0.249,1.617-0.368c0.427-0.151,0.924-0.388,1.39-0.731c0.861-0.633,1.38-1.538,1.33-2.738c-0.028-0.661-0.238-1.316-0.505-1.934c0.078-0.112,0.156-0.226,0.235-0.34c1.357-1.984,2.41-4.164,2.41-4.164s0.099,0.668,0.424,1.774c0.164,0.559,0.489,1.17,0.781,1.768c-1.276,1.037-2.067,2.242-2.342,3.032c-0.508,1.462-0.11,2.124,0.636,2.275c0.338,0.068,0.816-0.087,1.175-0.239c0.447-0.148,0.984-0.395,1.486-0.764c0.861-0.633,1.689-1.519,1.639-2.718c-0.023-0.546-0.171-1.088-0.372-1.608c1.082-0.451,2.482-0.701,4.266-0.493c3.827,0.447,4.577,2.836,4.434,3.836c-0.144,1-0.946,1.55-1.215,1.716c-0.268,0.166-0.35,0.224-0.328,0.347c0.033,0.179,0.157,0.173,0.386,0.134c0.315-0.053,2.009-0.813,2.082-2.659C46.089,28.509,43.844,25.935,39.867,25.956z M10.37,35.9c-1.268,1.383-3.038,1.905-3.798,1.465c-0.82-0.475-0.495-2.511,1.06-3.979c0.948-0.894,2.172-1.718,2.984-2.225c0.185-0.111,0.456-0.274,0.786-0.472c0.055-0.031,0.086-0.048,0.086-0.048l-0.001-0.002c0.064-0.038,0.129-0.077,0.196-0.118C12.25,32.61,11.701,34.449,10.37,35.9z M19.605,29.623c-0.441,1.076-1.365,3.83-1.928,3.682c-0.483-0.127-0.777-2.22-0.096-4.28c0.342-1.037,1.074-2.276,1.504-2.757c0.692-0.774,1.454-1.027,1.639-0.713C20.959,25.955,19.882,28.948,19.605,29.623z M27.234,33.263c-0.187,0.098-0.359,0.159-0.438,0.112c-0.059-0.035,0.077-0.164,0.077-0.164s0.954-1.027,1.33-1.494c0.219-0.272,0.472-0.595,0.748-0.955c0.002,0.036,0.003,0.072,0.003,0.107C28.952,32.099,27.764,32.929,27.234,33.263z M33.111,31.923c-0.14-0.099-0.116-0.42,0.343-1.421c0.18-0.393,0.592-1.054,1.306-1.686c0.083,0.26,0.133,0.509,0.132,0.741C34.883,31.105,33.779,31.683,33.111,31.923z"></path>
  </symbol>
</svg>