<svg xmlns="http://www.w3.org/2000/svg" viewBox="0 0 30 30">
  <path d="M15 3C13.307 3 11.817109 3.8458125 10.912109 5.1328125C9.3621094 4.8628125 7.712625 5.318625 6.515625 6.515625C5.318625 7.712625 4.8628125 9.3631094 5.1328125 10.912109C3.8458125 11.817109 3 13.307 3 15C3 16.693 3.8458125 18.182891 5.1328125 19.087891C4.8628125 20.637891 5.318625 22.287375 6.515625 23.484375C7.712625 24.681375 9.3631094 25.137187 10.912109 24.867188C11.817109 26.154187 13.307 27 15 27C16.693 27 18.182891 26.154188 19.087891 24.867188C20.637891 25.137187 22.287375 24.681375 23.484375 23.484375C24.681375 22.287375 25.137187 20.636891 24.867188 19.087891C26.154187 18.182891 27 16.693 27 15C27 13.307 26.154188 11.817109 24.867188 10.912109C25.137187 9.3621094 24.681375 7.712625 23.484375 6.515625C22.287375 5.318625 20.636891 4.8628125 19.087891 5.1328125C18.182891 3.8458125 16.693 3 15 3 z M 21 10C21.25575 10 21.511531 10.097469 21.707031 10.292969C22.098031 10.683969 22.098031 11.316031 21.707031 11.707031L14.146484 19.267578C13.958484 19.455578 13.704453 19.560547 13.439453 19.560547C13.174453 19.560547 12.919422 19.455578 12.732422 19.267578L9.2792969 15.814453C8.8882969 15.423453 8.8882969 14.791391 9.2792969 14.400391C9.6702969 14.009391 10.302359 14.009391 10.693359 14.400391L13.439453 17.146484L20.292969 10.292969C20.488469 10.097469 20.74425 10 21 10 z" fill="#00000C" />
</svg>